<?xml version="1.0" encoding="UTF-8"?>
<svg id="Layer_2" xmlns="http://www.w3.org/2000/svg" viewBox="0 0 237 283.2">
  <defs>
    <style>
      .cls-1 {
        fill: #03b1a3;
      }

      .cls-2 {
        fill: #3dbeb3;
      }
    </style>
  </defs>
  <g id="Layer_1-2" data-name="Layer_1">
    <path class="cls-2" d="M110.6,1.5L14.2,38.3C5.6,41.7,0,50,0,59.2v92.7l44.3-25.4v-52.1l74.2-28.5V0c-2.7,0-5.4.5-7.9,1.5ZM45.1,209.1l73.4-42.3v-51.1L5,181.1c-3.1,1.8-5,5.1-5,8.7v34.2c0,9.2,5.7,17.3,14.2,20.7l96.4,36.8c2.5,1,5.2,1.5,7.9,1.5v-45.9l-73.4-28.1v.1Z"/>
    <path class="cls-1" d="M232.3,101.1c2.9-1.7,4.8-4.8,4.7-8.2v-33.6c0-9.2-5.6-17.5-14.2-20.9L126.3,1.5c-2.5-1-5.1-1.5-7.8-1.5v45.9l72.9,28-72.9,42v51.1l113.8-65.9h0ZM126.3,281.6l96.4-36.8c8.5-3.3,14.2-11.5,14.2-20.7v-93.7l-44.3,25.6v52.9l-74.2,28.4v45.9c2.7,0,5.3-.5,7.8-1.5l.1-.1h0Z"/>
  </g>
</svg>